HIERARCHY
ROOT root
{
  OFFSET 0 87.9003 0
  CHANNELS 6 Xposition Yposition Zposition Zrotation Xrotation Yrotation
  JOINT torso_1
  {
    OFFSET 0 4.78511 -1.08482
    CHANNELS 6 Xposition Yposition Zposition Zrotation Xrotation Yrotation
    JOINT torso_2
    {
      OFFSET 0 5.29195 1.00949
      CHANNELS 6 Xposition Yposition Zposition Zrotation Xrotation Yrotation
      JOINT torso_3
      {
        OFFSET -9.66735e-18 5.64355 0.108362
        CHANNELS 6 Xposition Yposition Zposition Zrotation Xrotation Yrotation
        JOINT torso_4
        {
          OFFSET -1.04072e-17 6.12977 -0.417886
          CHANNELS 6 Xposition Yposition Zposition Zrotation Xrotation Yrotation
          JOINT torso_5
          {
            OFFSET -1.85891e-17 7.16586 -1.41888
            CHANNELS 6 Xposition Yposition Zposition Zrotation Xrotation Yrotation
            JOINT torso_6
            {
              OFFSET -2.38665e-17 8.94839 -0.861631
              CHANNELS 6 Xposition Yposition Zposition Zrotation Xrotation Yrotation
              JOINT torso_7
              {
                OFFSET -2.73615e-17 9.94144 1.48576
                CHANNELS 6 Xposition Yposition Zposition Zrotation Xrotation Yrotation
                JOINT neck_1
                {
                  OFFSET -1.21725e-17 4.50977 0.67399
                  CHANNELS 6 Xposition Yposition Zposition Zrotation Xrotation Yrotation
                  JOINT neck_2
                  {
                    OFFSET -1.70689e-17 4.54241 0.39741
                    CHANNELS 6 Xposition Yposition Zposition Zrotation Xrotation Yrotation
                    JOINT head
                    {
                      OFFSET -1.89342e-17 4.5512 0.720839
                      CHANNELS 6 Xposition Yposition Zposition Zrotation Xrotation Yrotation
                      End Site
                      {
                        OFFSET 0 0.1 0
                      }
                    }
                  }
                }
                JOINT l_shoulder
                {
                  OFFSET 1.16172 -7.16758 7.09827
                  CHANNELS 6 Xposition Yposition Zposition Zrotation Xrotation Yrotation
                  JOINT l_up_arm
                  {
                    OFFSET 12.2059 3.06167 -3.07978
                    CHANNELS 6 Xposition Yposition Zposition Zrotation Xrotation Yrotation
                    JOINT l_low_arm
                    {
                      OFFSET 27.5197 0.056351 0.129118
                      CHANNELS 6 Xposition Yposition Zposition Zrotation Xrotation Yrotation
                      JOINT l_hand
                      {
                        OFFSET 22.8331 0.0467536 0.107129
                        CHANNELS 6 Xposition Yposition Zposition Zrotation Xrotation Yrotation
                        End Site
                        {
                          OFFSET 0.1 0 0
                        }
                      }
                    }
                  }
                }
                JOINT r_shoulder
                {
                  OFFSET -1.16172 -7.16756 7.09818
                  CHANNELS 6 Xposition Yposition Zposition Zrotation Xrotation Yrotation
                  JOINT r_up_arm
                  {
                    OFFSET -12.2059 3.06167 -3.07978
                    CHANNELS 6 Xposition Yposition Zposition Zrotation Xrotation Yrotation
                    JOINT r_low_arm
                    {
                      OFFSET -27.5197 0.056351 0.129118
                      CHANNELS 6 Xposition Yposition Zposition Zrotation Xrotation Yrotation
                      JOINT r_hand
                      {
                        OFFSET -22.8331 0.0467534 0.107129
                        CHANNELS 6 Xposition Yposition Zposition Zrotation Xrotation Yrotation
                        End Site
                        {
                          OFFSET -0.1 0 0
                        }
                      }
                    }
                  }
                }
              }
            }
          }
        }
      }
    }
  }
  JOINT l_up_leg
  {
    OFFSET 8.70282 -3.96247 1.9152
    CHANNELS 6 Xposition Yposition Zposition Zrotation Xrotation Yrotation
    JOINT l_low_leg
    {
      OFFSET -0.803084 -36.5309 -0.617314
      CHANNELS 6 Xposition Yposition Zposition Zrotation Xrotation Yrotation
      JOINT l_foot
      {
        OFFSET -2.19176 -38.0664 -5.69911
        CHANNELS 6 Xposition Yposition Zposition Zrotation Xrotation Yrotation
        JOINT l_toes
        {
          OFFSET 0.734061 -9.31305 11.7736
          CHANNELS 6 Xposition Yposition Zposition Zrotation Xrotation Yrotation
          End Site
          {
            OFFSET 0 0 0.1
          }
        }
      }
    }
  }
  JOINT r_up_leg
  {
    OFFSET -8.70282 -3.96247 1.9152
    CHANNELS 6 Xposition Yposition Zposition Zrotation Xrotation Yrotation
    JOINT r_low_leg
    {
      OFFSET 0.803084 -36.5309 -0.617314
      CHANNELS 6 Xposition Yposition Zposition Zrotation Xrotation Yrotation
      JOINT r_foot
      {
        OFFSET 2.19176 -38.0664 -5.69911
        CHANNELS 6 Xposition Yposition Zposition Zrotation Xrotation Yrotation
        JOINT r_toes
        {
          OFFSET -0.734061 -9.31305 11.7736
          CHANNELS 6 Xposition Yposition Zposition Zrotation Xrotation Yrotation
          End Site
          {
            OFFSET 0 0 0.1
          }
        }
      }
    }
  }
}
MOTION
Frames: 4
Frame Time: 0.016667
0 87.9003 0 -0 0 -0 0 4.78511 -1.08482 -0 0 -0 0 5.29195 1.00949 -0 0 -0 -9.66735e-18 5.64355 0.108362 -0 0 -0 -1.04072e-17 6.12977 -0.417886 -0 0 -0 -1.85891e-17 7.16586 -1.41888 -0 0 -0 -2.38665e-17 8.94839 -0.861631 -0 0 -0 -2.73615e-17 9.94144 1.48576 -0 0 -0 -1.21725e-17 4.50977 0.67399 -0 0 -0 -1.70689e-17 4.54241 0.39741 -0 0 -0 -1.89342e-17 4.5512 0.720839 -0 0 -0 1.16172 -7.16758 7.09827 -0 0 -0 12.2059 3.06167 -3.07978 -0 0 -0 27.5197 0.056351 0.129118 -0 0 -0 22.8331 0.0467536 0.107129 -0 0 -0 -1.16172 -7.16756 7.09818 -0 0 -0 -12.2059 3.06167 -3.07978 -0 0 -0 -27.5197 0.056351 0.129118 -0 0 -0 -22.8331 0.0467534 0.107129 -0 0 -0 8.70282 -3.96247 1.9152 -0 0 -0 -0.803084 -36.5309 -0.617314 -0 0 -0 -2.19176 -38.0664 -5.69911 -0 0 -0 0.734061 -9.31305 11.7736 -0 0 -0 -8.70282 -3.96247 1.9152 -0 0 -0 0.803084 -36.5309 -0.617314 -0 0 -0 2.19176 -38.0664 -5.69911 -0 0 -0 -0.734061 -9.31305 11.7736 -0 0 -0 
323.942 88.0786 203.667 2.08704 17.6105 -17.7472 0 4.78511 -1.08482 0.313349 -2.7184 -0.278467 0 5.29195 1.00949 0.52923 -2.06561 -0.310763 -9.66735e-18 5.64355 0.108362 0.526355 -1.20036 -0.191567 -1.04072e-17 6.12977 -0.417886 0.558016 -0.186319 -0.150898 -1.85891e-17 7.16586 -1.41888 0.488687 0.539975 -0.205102 -2.38665e-17 8.94839 -0.861631 0.415013 0.376656 -0.502092 -2.73615e-17 9.94144 1.48576 -0.0399465 0.894741 0.0521198 -1.21725e-17 4.50977 0.67399 -2.24473 -15.5121 -7.17058 -1.70689e-17 4.54241 0.39741 0.45274 -6.72798 -3.29144 -1.89342e-17 4.5512 0.720839 1.24268 -2.97136 -1.11687 1.16172 -7.16758 7.09827 -2.38301 4.50182 -1.59255 12.2059 3.06167 -3.07978 -82.2744 19.1731 -4.37855 27.5197 0.056351 0.129118 2.20553 -0.194833 -10.6868 22.8331 0.0467536 0.107129 0.571547 -21.3118 -4.67697 -1.16172 -7.16756 7.09818 3.90698 6.4102 2.71462 -12.2059 3.06167 -3.07978 76.8407 22.1911 8.9742 -27.5197 0.056351 0.129118 -2.48627 -0.249646 12.0635 -22.8331 0.0467534 0.107129 2.6965 -19.9724 3.6501 8.70282 -3.96247 1.9152 3.86331 -24.3322 -20.7795 -0.803084 -36.5309 -0.617314 -1.38549 5.17168 -0.0277529 -2.19176 -38.0664 -5.69911 -0.549166 -2.03572 15.3429 0.734061 -9.31305 11.7736 3.73473e-16 -6.56748e-16 -2.06191e-16 -8.70282 -3.96247 1.9152 1.63907 -21.4689 15.4171 0.803084 -36.5309 -0.617314 -0.0563982 -0.210421 -0.00377601 2.19176 -38.0664 -5.69911 1.85815 3.46047 -15.0467 -0.734061 -9.31305 11.7736 5.50318e-17 -4.1419e-16 -1.2608e-14 
323.943 88.0768 203.67 2.09514 17.6245 -17.765 0 4.78511 -1.08482 0.315651 -2.72691 -0.274492 0 5.29195 1.00949 0.530039 -2.07212 -0.306064 -9.66735e-18 5.64355 0.108362 0.526274 -1.20435 -0.186755 -1.04072e-17 6.12977 -0.417886 0.556918 -0.186424 -0.145879 -1.85891e-17 7.16586 -1.41888 0.487746 0.543072 -0.200036 -2.38665e-17 8.94839 -0.861631 0.415006 0.382708 -0.496653 -2.73615e-17 9.94144 1.48576 -0.0399874 0.894537 0.0527062 -1.21725e-17 4.50977 0.67399 -2.25379 -15.5661 -7.17164 -1.70689e-17 4.54241 0.39741 0.453052 -6.74316 -3.29133 -1.89342e-17 4.5512 0.720839 1.23952 -2.98367 -1.12151 1.16172 -7.16758 7.09827 -2.39973 4.50017 -1.59398 12.2059 3.06167 -3.07978 -82.2494 19.1326 -4.39181 27.5197 0.056351 0.129118 2.20875 -0.195424 -10.7026 22.8331 0.0467536 0.107129 0.585613 -21.3068 -4.68711 -1.16172 -7.16756 7.09818 3.93098 6.41464 2.71151 -12.2059 3.06167 -3.07978 76.8215 22.1957 8.96457 -27.5197 0.056351 0.129118 -2.49033 -0.250493 12.0835 -22.8331 0.0467534 0.107129 2.70326 -20.065 3.66295 8.70282 -3.96247 1.9152 3.86403 -24.3558 -20.7681 -0.803084 -36.5309 -0.617314 -1.39157 5.19433 -0.0275987 -2.19176 -38.0664 -5.69911 -0.546726 -2.05115 15.3434 0.734061 -9.31305 11.7736 1.15886e-16 -6.67877e-16 -1.98141e-16 -8.70282 -3.96247 1.9152 1.64279 -21.4934 15.4279 0.803084 -36.5309 -0.617314 -0.0529586 -0.197589 -0.00353978 2.19176 -38.0664 -5.69911 1.85158 3.45351 -15.0469 -0.734061 -9.31305 11.7736 -2.02555e-16 -4.03061e-16 -1.25919e-14 
323.938 88.0838 203.657 2.10847 17.6311 -17.7831 0 4.78511 -1.08482 0.313357 -2.74108 -0.269396 0 5.29195 1.00949 0.526313 -2.08125 -0.3004 -9.66735e-18 5.64355 0.108362 0.522606 -1.2061 -0.181027 -1.04072e-17 6.12977 -0.417886 0.553098 -0.176191 -0.13981 -1.85891e-17 7.16586 -1.41888 0.485506 0.559683 -0.193641 -2.38665e-17 8.94839 -0.861631 0.415248 0.406849 -0.489812 -2.73615e-17 9.94144 1.48576 -0.0399976 0.892794 0.0530871 -1.21725e-17 4.50977 0.67399 -2.266 -15.6196 -7.18174 -1.70689e-17 4.54241 0.39741 0.458576 -6.77214 -3.29532 -1.89342e-17 4.5512 0.720839 1.24836 -2.99987 -1.13557 1.16172 -7.16758 7.09827 -2.42457 4.49054 -1.5976 12.2059 3.06167 -3.07978 -82.1944 19.0822 -4.44102 27.5197 0.056351 0.129118 2.21184 -0.195992 -10.7177 22.8331 0.0467536 0.107129 0.591857 -21.2942 -4.68785 -1.16172 -7.16756 7.09818 3.96199 6.41148 2.70971 -12.2059 3.06167 -3.07978 76.7929 22.2165 8.98893 -27.5197 0.056351 0.129118 -2.49433 -0.251329 12.1032 -22.8331 0.0467534 0.107129 2.71327 -20.1704 3.68304 8.70282 -3.96247 1.9152 3.86249 -24.3955 -20.7626 -0.803084 -36.5309 -0.617314 -1.40111 5.22983 -0.0273521 -2.19176 -38.0664 -5.69911 -0.560491 -2.01834 15.3449 0.734061 -9.31305 11.7736 1.08427e-16 -6.682e-16 -1.97675e-16 -8.70282 -3.96247 1.9152 1.64449 -21.5394 15.4494 0.803084 -36.5309 -0.617314 -0.0432131 -0.161233 -0.00287465 2.19176 -38.0664 -5.69911 1.86293 3.48012 -15.048 -0.734061 -9.31305 11.7736 -2.10014e-16 -4.02738e-16 -1.25917e-14 
